<mxfile host="app.diagrams.net" modified="2020-11-28T02:56:21.619Z" agent="5.0 (Windows NT 10.0; Win64; x64) AppleWebKit/537.36 (KHTML, like Gecko) Chrome/87.0.4280.67 Safari/537.36 Edg/87.0.664.47" etag="kbdFTixoFWjjSuV50pCu" version="13.7.7" type="github">
  <diagram id="qHT8lR6Z8IEnRzVZ0eVU" name="第 1 页">
    <mxGraphModel dx="1106" dy="1754" grid="1" gridSize="10" guides="1" tooltips="1" connect="1" arrows="1" fold="1" page="1" pageScale="1" pageWidth="827" pageHeight="1169" math="0" shadow="0">
      <root>
        <mxCell id="0" />
        <mxCell id="1" parent="0" />
        <mxCell id="MW_U-gKa7REWeiEw_FAd-1" value="" style="rounded=1;whiteSpace=wrap;html=1;" vertex="1" parent="1">
          <mxGeometry x="90" y="100" width="330" height="180" as="geometry" />
        </mxCell>
        <mxCell id="MW_U-gKa7REWeiEw_FAd-2" value="&lt;font style=&quot;font-size: 16px&quot;&gt;Tomcat&lt;/font&gt;" style="text;html=1;strokeColor=none;fillColor=none;align=center;verticalAlign=middle;whiteSpace=wrap;rounded=0;" vertex="1" parent="1">
          <mxGeometry x="110" y="170" width="70" height="40" as="geometry" />
        </mxCell>
        <mxCell id="MW_U-gKa7REWeiEw_FAd-20" style="edgeStyle=orthogonalEdgeStyle;curved=1;rounded=0;orthogonalLoop=1;jettySize=auto;html=1;entryX=0.5;entryY=0.5;entryDx=0;entryDy=0;entryPerimeter=0;" edge="1" parent="1" source="MW_U-gKa7REWeiEw_FAd-3" target="MW_U-gKa7REWeiEw_FAd-17">
          <mxGeometry relative="1" as="geometry">
            <Array as="points">
              <mxPoint x="170" y="190" />
              <mxPoint x="170" y="-30" />
            </Array>
          </mxGeometry>
        </mxCell>
        <mxCell id="MW_U-gKa7REWeiEw_FAd-3" value="&lt;font style=&quot;font-size: 15px&quot;&gt;application.war&lt;/font&gt;" style="ellipse;whiteSpace=wrap;html=1;" vertex="1" parent="1">
          <mxGeometry x="192.5" y="155" width="125" height="70" as="geometry" />
        </mxCell>
        <mxCell id="MW_U-gKa7REWeiEw_FAd-11" style="edgeStyle=orthogonalEdgeStyle;rounded=0;orthogonalLoop=1;jettySize=auto;html=1;entryX=0.5;entryY=1;entryDx=0;entryDy=0;entryPerimeter=0;curved=1;" edge="1" parent="1" source="MW_U-gKa7REWeiEw_FAd-6" target="MW_U-gKa7REWeiEw_FAd-7">
          <mxGeometry relative="1" as="geometry">
            <Array as="points">
              <mxPoint x="365" y="150" />
              <mxPoint x="470" y="150" />
              <mxPoint x="470" y="190" />
            </Array>
          </mxGeometry>
        </mxCell>
        <mxCell id="MW_U-gKa7REWeiEw_FAd-6" value="&lt;font style=&quot;font-size: 15px&quot;&gt;session&lt;/font&gt;" style="text;html=1;strokeColor=none;fillColor=none;align=center;verticalAlign=middle;whiteSpace=wrap;rounded=0;" vertex="1" parent="1">
          <mxGeometry x="330" y="170" width="70" height="40" as="geometry" />
        </mxCell>
        <mxCell id="MW_U-gKa7REWeiEw_FAd-7" value="" style="shape=cylinder3;whiteSpace=wrap;html=1;boundedLbl=1;backgroundOutline=1;size=15;direction=north;rotation=-180;align=left;" vertex="1" parent="1">
          <mxGeometry x="490" y="155" width="120" height="70" as="geometry" />
        </mxCell>
        <mxCell id="MW_U-gKa7REWeiEw_FAd-14" style="edgeStyle=orthogonalEdgeStyle;curved=1;rounded=0;orthogonalLoop=1;jettySize=auto;html=1;entryX=0.5;entryY=1;entryDx=0;entryDy=0;" edge="1" parent="1" source="MW_U-gKa7REWeiEw_FAd-8" target="MW_U-gKa7REWeiEw_FAd-6">
          <mxGeometry relative="1" as="geometry">
            <Array as="points">
              <mxPoint x="470" y="190" />
              <mxPoint x="470" y="230" />
              <mxPoint x="365" y="230" />
            </Array>
          </mxGeometry>
        </mxCell>
        <mxCell id="MW_U-gKa7REWeiEw_FAd-8" value="&lt;font style=&quot;font-size: 20px&quot;&gt;redis&lt;/font&gt;" style="text;html=1;strokeColor=none;fillColor=none;align=center;verticalAlign=middle;whiteSpace=wrap;rounded=0;" vertex="1" parent="1">
          <mxGeometry x="510" y="170" width="70" height="40" as="geometry" />
        </mxCell>
        <mxCell id="MW_U-gKa7REWeiEw_FAd-15" value="" style="shape=flexArrow;endArrow=classic;html=1;" edge="1" parent="1">
          <mxGeometry width="50" height="50" relative="1" as="geometry">
            <mxPoint x="220" y="80" as="sourcePoint" />
            <mxPoint x="280" y="20" as="targetPoint" />
          </mxGeometry>
        </mxCell>
        <mxCell id="MW_U-gKa7REWeiEw_FAd-16" value="&lt;font style=&quot;font-size: 19px&quot;&gt;cookie&lt;/font&gt;" style="text;html=1;strokeColor=none;fillColor=none;align=center;verticalAlign=middle;whiteSpace=wrap;rounded=0;" vertex="1" parent="1">
          <mxGeometry x="260" y="40" width="82" height="40" as="geometry" />
        </mxCell>
        <mxCell id="MW_U-gKa7REWeiEw_FAd-19" style="edgeStyle=orthogonalEdgeStyle;curved=1;rounded=0;orthogonalLoop=1;jettySize=auto;html=1;entryX=1;entryY=0.5;entryDx=0;entryDy=0;" edge="1" parent="1" source="MW_U-gKa7REWeiEw_FAd-17" target="MW_U-gKa7REWeiEw_FAd-3">
          <mxGeometry relative="1" as="geometry">
            <mxPoint x="360" y="10" as="targetPoint" />
            <Array as="points">
              <mxPoint x="370" y="-40" />
              <mxPoint x="370" y="190" />
            </Array>
          </mxGeometry>
        </mxCell>
        <mxCell id="MW_U-gKa7REWeiEw_FAd-17" value="Actor" style="shape=umlActor;verticalLabelPosition=bottom;verticalAlign=top;html=1;outlineConnect=0;" vertex="1" parent="1">
          <mxGeometry x="286" y="-60" width="30" height="60" as="geometry" />
        </mxCell>
      </root>
    </mxGraphModel>
  </diagram>
</mxfile>
